<?xml version="1.0" encoding="UTF-8"?>
<svg version="1.1" xmlns="http://www.w3.org/2000/svg" width="512" height="512">
<path d="M0 0 C1.39528161 -0.00533685 2.79055746 -0.01240904 4.18582255 -0.02104706 C7.98747004 -0.03955069 11.78872472 -0.03341233 15.5903877 -0.02289402 C19.70297206 -0.01586684 23.81547854 -0.03192648 27.92803955 -0.04489136 C35.97200679 -0.06647784 44.01583226 -0.06641827 52.05981892 -0.05826581 C58.6007204 -0.05195331 65.1415807 -0.05311429 71.68248177 -0.05953789 C72.61517459 -0.06043954 73.54786741 -0.0613412 74.50882365 -0.06227018 C76.40387675 -0.06412147 78.29892983 -0.06598403 80.19398291 -0.06785773 C97.94441558 -0.08441751 115.69476865 -0.07573247 133.44519652 -0.05887216 C149.66670237 -0.0441764 165.88802298 -0.05880508 182.10950499 -0.08764232 C198.78782088 -0.11706967 215.46605137 -0.1279989 232.14439207 -0.11846012 C234.03258708 -0.11743762 235.92078209 -0.11644301 237.80897713 -0.11547661 C238.73787729 -0.11500022 239.66677745 -0.11452383 240.6238261 -0.114033 C247.1521531 -0.11187331 253.68039882 -0.12164922 260.20870781 -0.13624763 C268.17144269 -0.15380615 276.13394148 -0.15360323 284.09666722 -0.13089598 C288.15511472 -0.11978573 292.21314682 -0.11651765 296.27157593 -0.13519669 C299.99448596 -0.1521103 303.71662178 -0.14550562 307.43948264 -0.1209799 C309.4076692 -0.11385351 311.3758988 -0.13103627 313.34401268 -0.14939123 C324.11270939 -0.03753204 334.2422052 2.73804294 342.81263733 9.5146637 C343.72722717 10.18175354 343.72722717 10.18175354 344.66029358 10.86231995 C355.13496225 19.07655915 359.61737317 29.75870128 361.81263733 42.5146637 C362.1724735 47.24845422 362.16566047 51.94524933 362.10560608 56.69044495 C362.10136124 57.98161728 362.09711639 59.27278961 362.09274292 60.60308838 C362.08144569 63.9880663 362.05211519 67.37264015 362.01863098 70.75746155 C361.98759785 74.23050983 361.97416759 77.70362525 361.9591217 81.17677307 C361.92722578 87.95623292 361.87622014 94.73542876 361.81263733 101.5146637 C362.55516754 101.56958481 363.29769775 101.62450592 364.06272888 101.68109131 C370.91465729 102.21565118 377.68301178 102.97051169 384.47669983 104.00294495 C385.43482574 104.14741562 386.39295166 104.29188629 387.38011169 104.44073486 C389.38531494 104.74522067 391.39016688 105.05202868 393.39466858 105.36109924 C396.43600822 105.82691418 399.47960532 106.27538557 402.52357483 106.72364807 C404.4872797 107.02401533 406.45082732 107.32541283 408.41419983 107.62794495 C409.30926239 107.75727921 410.20432495 107.88661346 411.12651062 108.01986694 C421.11552745 109.60400994 430.02544037 112.75562791 436.81263733 120.5146637 C440.47415225 126.19266509 441.93546708 131.40161932 441.93861389 138.13771057 C441.94242065 139.26568054 441.94622742 140.39365051 441.95014954 141.55580139 C441.95117676 142.76941345 441.95220398 143.98302551 441.95326233 145.2334137 C441.97158146 147.79982888 441.99115093 150.3662354 442.01185608 152.93263245 C442.04224658 156.98168609 442.06495225 161.03042656 442.06312561 165.0796051 C442.06218801 168.9853868 442.1009274 172.89032853 442.14076233 176.7959137 C442.13015778 178.61633179 442.13015778 178.61633179 442.11933899 180.473526 C441.97716736 186.89312711 441.97716736 186.89312711 445.22962952 192.05958557 C446.08202209 192.53976135 446.93441467 193.01993713 447.81263733 193.5146637 C449.72205849 196.4998194 450.07146818 198.86459152 450.10316467 202.37159729 C450.12230423 203.81362015 450.12230423 203.81362015 450.14183044 205.28477478 C450.14516891 206.83329636 450.14516891 206.83329636 450.14857483 208.4131012 C450.15523163 209.48081757 450.16188843 210.54853394 450.16874695 211.64860535 C450.17886785 213.90634947 450.18356414 216.16412347 450.1832428 218.42189026 C450.18761239 221.86998488 450.22392953 225.3167958 450.26185608 228.7646637 C450.26772508 230.95997183 450.27169392 233.15528603 450.27357483 235.3506012 C450.28794586 236.37890045 450.30231689 237.40719971 450.31712341 238.46665955 C450.27886211 244.48357861 449.80199894 247.92168224 445.81263733 252.5146637 C441.22949546 256.63172335 435.81032598 255.85434459 430.00013733 255.7021637 C429.02109436 255.68862854 428.04205139 255.67509338 427.03334045 255.66114807 C424.62587108 255.62591681 422.21954169 255.57665635 419.81263733 255.5146637 C419.64453552 256.62684265 419.64453552 256.62684265 419.47303772 257.76148987 C417.70676742 269.07255456 413.77116308 277.46093349 406.81263733 286.5146637 C406.33955139 287.1540387 405.86646545 287.7934137 405.37904358 288.4521637 C396.47277315 299.75530577 381.78643397 306.35718915 367.81263733 308.5146637 C352.51996172 309.80744658 338.92181491 306.82727133 325.81263733 298.5146637 C325.15779358 298.11376526 324.50294983 297.71286682 323.82826233 297.29981995 C312.48500189 289.84639439 304.17706332 276.48398322 300.81263733 263.5146637 C300.48263733 260.8746637 300.15263733 258.2346637 299.81263733 255.5146637 C239.09263733 255.5146637 178.37263733 255.5146637 115.81263733 255.5146637 C115.48263733 258.8146637 115.15263733 262.1146637 114.81263733 265.5146637 C110.84503875 279.52897113 100.86619259 292.26405396 88.37513733 299.7646637 C86.61169983 300.6309137 86.61169983 300.6309137 84.81263733 301.5146637 C83.97990295 301.93489807 83.14716858 302.35513245 82.28919983 302.7881012 C67.55445062 309.92846986 51.42010957 310.68463888 35.81263733 305.5146637 C21.5419237 299.78853985 8.75708081 289.44879133 1.81263733 275.5146637 C-0.99740232 268.76437562 -3.33876839 262.87620319 -3.18736267 255.5146637 C-3.80044281 255.52354614 -4.41352295 255.53242859 -5.04518127 255.5415802 C-11.43671834 255.63020052 -17.82808034 255.69045901 -24.22007751 255.73439026 C-26.60426424 255.75448263 -28.98840182 255.78176151 -31.37242126 255.81642151 C-34.80304605 255.86504229 -38.23301822 255.88765681 -41.66392517 255.9052887 C-42.72664642 255.92593384 -43.78936768 255.94657898 -44.8842926 255.96784973 C-50.80215984 255.96963662 -54.64381997 255.72820834 -59.18736267 251.5146637 C-63.30369516 246.91975113 -62.6376434 241.35738208 -62.62095642 235.51856995 C-62.62619827 234.45226852 -62.63144012 233.3859671 -62.63684082 232.28735352 C-62.64325526 230.03557708 -62.64193154 227.78376712 -62.63340759 225.53199768 C-62.62490102 222.09266795 -62.6536634 218.65500118 -62.68540955 215.21583557 C-62.6870218 213.02508086 -62.68644356 210.83432321 -62.68345642 208.64356995 C-62.6946904 207.61840775 -62.70592438 206.59324554 -62.71749878 205.53701782 C-62.65912542 199.53584131 -62.16407655 196.09649956 -58.18736267 191.5146637 C-54.78736267 188.5146637 -54.78736267 188.5146637 -52.18736267 188.5146637 C-52.19104984 187.75266537 -52.19473701 186.99066704 -52.19853592 186.20557785 C-52.28705075 167.62499169 -52.35315175 149.04444788 -52.39461136 130.46369553 C-52.41519621 121.4780035 -52.4432384 112.49245261 -52.48912048 103.5068512 C-52.52911359 95.67078942 -52.55482509 87.83482992 -52.56371665 79.99866891 C-52.56891039 75.85325467 -52.58103143 71.70813289 -52.6102829 67.56281281 C-52.63764973 63.65249158 -52.64576529 59.7425803 -52.6397934 55.83217239 C-52.64088421 54.40523925 -52.64871078 52.97829085 -52.66418457 51.55144119 C-52.82265081 36.17079723 -48.85177603 25.4219549 -38.87486267 13.8271637 C-26.8728787 3.49987516 -15.81377582 -0.10250587 0 0 Z " fill="#000000" transform="translate(62.18736267089844,101.48533630371094)"/>
<path d="M0 0 C1.73074004 -0.00946191 1.73074004 -0.00946191 3.49644452 -0.01911497 C5.40670447 -0.02190797 5.40670447 -0.02190797 7.35555553 -0.02475739 C8.71760241 -0.03020351 10.07964766 -0.03606695 11.4416911 -0.0423131 C15.1932014 -0.05817726 18.94470515 -0.06768393 22.69623864 -0.07607794 C25.91215041 -0.08407873 29.12804449 -0.09577012 32.34394453 -0.10749274 C43.86619902 -0.1494195 55.38847433 -0.17661499 66.91077709 -0.20114899 C67.82042106 -0.20312389 68.73006503 -0.20509879 69.66727397 -0.20713353 C87.73426851 -0.24630699 105.80126998 -0.28000569 123.86829376 -0.30221558 C127.84152073 -0.30718481 131.81474759 -0.31222913 135.78797436 -0.31735992 C137.26924724 -0.31926593 137.26924724 -0.31926593 138.78044482 -0.32121044 C154.76261938 -0.34255137 170.74458775 -0.39152613 186.72665868 -0.45160407 C203.14137924 -0.51279838 219.55599364 -0.54741425 235.9708268 -0.55668879 C245.1845135 -0.56259166 254.39785133 -0.58026586 263.61142445 -0.62807465 C271.46201359 -0.66877343 279.31219692 -0.68551622 287.16288684 -0.67142183 C291.16487635 -0.66497557 295.1660025 -0.66964009 299.16785717 -0.70529556 C302.84080046 -0.73775572 306.51227993 -0.73710737 310.18526354 -0.71147853 C312.12437566 -0.70616521 314.06349166 -0.73503623 316.0023697 -0.76563025 C326.20588511 -0.64004813 335.0266908 2.42744167 342.84894162 9.18469667 C348.65668151 15.22938941 351.59946128 21.82003916 351.48499584 30.14260101 C350.29946117 30.15718353 349.11392651 30.17176605 347.89246655 30.18679047 C343.48461108 30.24486039 339.0772618 30.32209285 334.6698103 30.40505219 C332.76396953 30.43826063 330.85803138 30.46630527 328.95203686 30.48903656 C326.20869569 30.52265769 323.46624362 30.57497696 320.72327709 30.63088226 C319.44955997 30.64046715 319.44955997 30.64046715 318.1501112 30.65024567 C316.94943256 30.6799369 316.94943256 30.6799369 315.7244978 30.71022797 C314.67525883 30.72688255 314.67525883 30.72688255 313.60482311 30.7438736 C310.63415682 31.30263898 308.8390079 32.24225748 306.48499584 34.14260101 C305.74692501 36.8219199 305.74692501 36.8219199 305.88563061 39.92751312 C305.87955288 41.11562088 305.87347515 42.30372864 305.86721325 43.52783966 C305.88674557 44.81223434 305.90627789 46.09662903 305.92640209 47.41994476 C305.92989918 49.3969915 305.92989918 49.3969915 305.93346691 51.41397858 C305.93963312 54.20431366 305.9623308 56.9938462 305.9979353 59.78395844 C306.04316473 63.35627037 306.05795885 66.92785447 306.06167221 70.50042629 C306.06717377 73.91120511 306.09055581 77.32173889 306.11390209 80.73244476 C306.12194614 82.65600044 306.12194614 82.65600044 306.1301527 84.61841583 C306.1461401 85.80967575 306.16212749 87.00093567 306.17859936 88.22829437 C306.19455906 89.80023811 306.19455906 89.80023811 306.21084118 91.40393829 C306.48967525 94.18934587 306.89965984 95.84556263 308.48499584 98.14260101 C311.38444416 99.10908378 313.25081064 99.27138833 316.26624584 99.27541351 C317.19050365 99.27670258 318.11476147 99.27799164 319.06702709 99.27931976 C320.51142162 99.27351898 320.51142162 99.27351898 321.98499584 99.26760101 C322.94792553 99.2714682 323.91085522 99.27533539 324.90296459 99.27931976 C326.28935131 99.27738617 326.28935131 99.27738617 327.70374584 99.27541351 C328.54872631 99.27428558 329.39370678 99.27315765 330.26429272 99.27199554 C332.65943017 99.22918326 332.65943017 99.22918326 335.48499584 98.14260101 C336.70369513 95.63812586 336.70369513 95.63812586 337.48499584 93.14260101 C339.92433809 93.00758207 342.35623688 92.90856204 344.79749584 92.83010101 C345.48778881 92.78820648 346.17808178 92.74631195 346.88929272 92.70314789 C348.91077709 92.65431976 348.91077709 92.65431976 352.48499584 93.14260101 C354.15296459 95.53713226 354.15296459 95.53713226 355.48499584 98.14260101 C359.16882546 99.99766355 362.72712673 100.59262227 366.79358959 101.11135101 C372.00382086 101.80686357 377.20282946 102.54321581 382.39515209 103.36135101 C383.06291668 103.46600677 383.73068127 103.57066254 384.41868114 103.67848969 C386.46175249 103.99901948 388.50463251 104.32074839 390.54749584 104.64260101 C392.59464081 104.96428479 394.64182891 105.28569161 396.68905163 105.60688019 C398.67803952 105.9192011 400.66684631 106.23267459 402.65565014 106.54616547 C405.17406522 106.93841845 407.69375225 107.32260499 410.21473217 107.69802094 C411.93792675 107.95482635 411.93792675 107.95482635 413.69593334 108.21681976 C414.70575268 108.36465912 415.71557201 108.51249847 416.75599194 108.66481781 C421.65567854 109.52263555 425.7658098 110.72252881 429.67542553 113.95192719 C432.56293104 119.04323986 431.97457311 124.13346922 431.87562084 129.88088226 C431.86996105 131.11678604 431.86430126 132.35268982 431.85846996 133.62604523 C431.83989869 136.89951699 431.80400939 140.1721918 431.75965405 143.44539642 C431.71861287 146.7903535 431.70078173 150.13534538 431.68030834 153.48049164 C431.63623017 160.0348387 431.56930818 166.5886547 431.48499584 173.14260101 C430.20624584 173.26635101 428.92749584 173.39010101 427.60999584 173.51760101 C424.13708648 173.833025 424.13708648 173.833025 421.48499584 176.14260101 C419.61905136 182.15658035 419.09110268 187.87382815 418.85999584 194.14260101 C418.82132397 195.0127182 418.78265209 195.88283539 418.74280834 196.77931976 C418.64958697 198.90010587 418.56625448 201.02132286 418.48499584 203.14260101 C415.26020695 200.02326994 412.4551726 196.87650698 409.79749584 193.26760101 C402.11498242 183.62511675 390.71993205 177.30090763 378.72718334 174.49806976 C366.2726959 173.13257777 352.96013104 172.56896392 341.48499584 178.14260101 C340.69351147 178.51642914 339.90202709 178.89025726 339.08655834 179.27541351 C326.04569536 185.9961313 316.11683302 196.50612215 310.48499584 210.14260101 C310.20011303 210.80904633 309.91523022 211.47549164 309.62171459 212.16213226 C307.7955775 216.68852895 307.21188301 220.05439085 306.48499584 225.14260101 C301.20499584 225.14260101 295.92499584 225.14260101 290.48499584 225.14260101 C290.47690899 222.78367706 290.46882214 220.42475311 290.46049023 217.99434662 C290.38347404 195.8035925 290.29553427 173.61290101 290.19746876 151.42222977 C290.14731193 140.01279038 290.10086937 128.60335829 290.06312084 117.19387054 C290.03021617 107.25126887 289.99039341 97.30872331 289.94220579 87.36618352 C289.91692564 82.09997496 289.89514882 76.8338037 289.88165188 71.56755066 C289.86884531 66.61326926 289.84680605 61.65911567 289.81761265 56.70490456 C289.80852589 54.884409 289.80284409 53.06389285 289.8007822 51.24337578 C289.79746742 48.76170116 289.78201139 46.28039067 289.76346874 43.79878998 C289.76637084 42.71318318 289.76637084 42.71318318 289.76933157 41.60564494 C289.72898605 38.00464043 289.67102686 35.10188722 287.48499584 32.14260101 C283.8087003 30.91716917 280.41684081 30.99505178 276.58875561 30.99733734 C275.78519634 30.99397873 274.98163708 30.99062012 274.15372753 30.98715973 C271.49460337 30.9776525 268.83554219 30.97570679 266.17640209 30.97463226 C264.32939153 30.97141973 262.48238123 30.96805566 260.63537121 30.9645462 C256.76256756 30.95855565 252.88978622 30.95670625 249.01697826 30.95729828 C244.05247772 30.95739994 239.08812007 30.94374292 234.12365341 30.92652607 C230.30869418 30.91541271 226.49376958 30.91337886 222.67879581 30.913908 C220.84835282 30.91272707 219.01790896 30.90829896 217.18748188 30.90057564 C214.62842932 30.89078837 212.06968809 30.89364867 209.51063061 30.89968109 C208.75361355 30.89406158 207.99659649 30.88844208 207.21663952 30.88265228 C202.01899716 30.89114834 202.01899716 30.89114834 197.48499584 33.14260101 C196.29469871 36.7134924 196.33178044 39.96174612 196.32677746 43.67853546 C196.32183948 44.45289013 196.3169015 45.2272448 196.31181389 46.02506477 C196.2964188 48.6276365 196.28807282 51.23018353 196.27967358 53.83278656 C196.27009663 55.69527657 196.26008666 57.55776441 196.2496748 59.42024994 C196.22259976 64.48394645 196.20160426 69.5476523 196.18167281 74.61138129 C196.15982929 79.90051722 196.13243262 85.18962425 196.10561657 90.47873688 C196.05566757 100.49779832 196.01073692 110.51687579 195.96759421 120.5359686 C195.91824069 131.94091885 195.86331557 143.34584012 195.80791461 154.75076234 C195.69406067 178.21468288 195.58796463 201.67863001 195.48499584 225.14260101 C171.06499584 225.14260101 146.64499584 225.14260101 121.48499584 225.14260101 C119.83499584 219.86260101 118.18499584 214.58260101 116.48499584 209.14260101 C109.8563983 193.45492016 97.7157703 183.66057023 82.45643139 176.92702484 C70.56476743 172.19539434 54.17224511 171.81423344 42.17249584 176.26760101 C40.24983159 177.17089996 38.35051228 178.12651281 36.48499584 179.14260101 C35.61101147 179.58861664 34.73702709 180.03463226 33.83655834 180.49416351 C18.75485407 188.80070217 9.74210126 200.98110898 4.48499584 217.14260101 C3.71862324 219.80494749 3.06944518 222.43288137 2.48499584 225.14260101 C-2.13500416 225.14260101 -6.75500416 225.14260101 -11.51500416 225.14260101 C-11.54006031 223.70424896 -11.56511646 222.26589691 -11.59093189 220.78395844 C-11.6849883 215.45574025 -11.78521341 210.12765296 -11.88731861 204.79958344 C-11.93067414 202.49199736 -11.97234876 200.18437907 -12.01231861 197.87673187 C-12.07000599 194.56291234 -12.13370508 191.24925505 -12.19859791 187.93556976 C-12.2153104 186.90111221 -12.2320229 185.86665466 -12.24924183 184.80084991 C-12.26918705 183.84008041 -12.28913227 182.87931091 -12.30968189 181.88942719 C-12.33299831 180.62034767 -12.33299831 180.62034767 -12.35678577 179.32563019 C-12.43774518 176.96300614 -12.43774518 176.96300614 -13.51500416 174.14260101 C-19.45500416 173.48260101 -25.39500416 172.82260101 -31.51500416 172.14260101 C-31.51500416 130.23260101 -31.51500416 88.32260101 -31.51500416 45.14260101 C-19.30500416 45.14260101 -7.09500416 45.14260101 5.48499584 45.14260101 C5.48499584 66.59260101 5.48499584 88.04260101 5.48499584 110.14260101 C-2.43500416 110.63760101 -2.43500416 110.63760101 -10.51500416 111.14260101 C-12.49500416 112.13260101 -12.49500416 112.13260101 -14.51500416 113.14260101 C-15.5158295 116.56503415 -15.5158295 116.56503415 -15.51500416 120.14260101 C-13.7927392 123.39110079 -13.7927392 123.39110079 -10.51500416 124.14260101 C-8.05316191 124.24012482 -5.6197413 124.28169595 -3.15784168 124.27631378 C-2.02504439 124.27971212 -2.02504439 124.27971212 -0.86936229 124.2831791 C1.668613 124.2895241 4.20653496 124.28868942 6.74451733 124.28786469 C8.56110739 124.29085584 10.37769681 124.29425827 12.19428539 124.2980423 C17.13430481 124.30689039 22.07430691 124.30922074 27.01433349 124.30985808 C31.13478309 124.31080655 35.25522864 124.3144841 39.37567669 124.31803018 C49.09449154 124.32617763 58.81329712 124.32861413 68.53211498 124.32790375 C78.56649813 124.3273027 88.60082756 124.33785915 98.6351971 124.35364741 C107.24331937 124.36671027 115.85142405 124.37208818 124.45955616 124.37144834 C129.60389853 124.371193 134.74819316 124.37406378 139.89252567 124.38462639 C144.72943996 124.39428641 149.56626068 124.39440099 154.40317822 124.38710976 C156.18015269 124.38606134 157.95713292 124.38844199 159.73409748 124.39447021 C162.15645928 124.40215678 164.57849523 124.39756763 167.00084972 124.38983917 C167.70697743 124.39498274 168.41310514 124.4001263 169.14063066 124.40542573 C172.71274601 124.38017383 175.54746844 124.30152354 178.48499584 122.14260101 C179.71042769 118.46630547 179.63254507 115.07444598 179.63025951 111.24636078 C179.63361813 110.44280151 179.63697674 109.63924225 179.64043713 108.8113327 C179.64994435 106.15220855 179.65189007 103.49314736 179.65296459 100.83400726 C179.65617713 98.9869967 179.6595412 97.1399864 179.66305065 95.29297638 C179.6690412 91.42017273 179.67089061 87.54739139 179.67029858 83.67458344 C179.67019691 78.7100829 179.68385393 73.74572524 179.70107079 68.78125858 C179.71218414 64.96629935 179.714218 61.15137475 179.71368885 57.33640099 C179.71486978 55.50595799 179.7192979 53.67551413 179.72702122 51.84508705 C179.73680849 49.28603449 179.73394818 46.72729326 179.72791576 44.16823578 C179.73353527 43.41121872 179.73915478 42.65420166 179.74494457 41.87424469 C179.73644851 36.67660233 179.73644851 36.67660233 177.48499584 32.14260101 C173.72708643 30.88996454 170.21885309 30.98921295 166.30367565 30.98438263 C165.45990059 30.97944465 164.61612553 30.97450668 163.74678153 30.96941906 C160.90927752 30.954017 158.07179618 30.9456761 155.23426342 30.93727875 C153.20428803 30.92770235 151.17431465 30.91769242 149.14434338 30.90727997 C143.62404872 30.88019899 138.10374548 30.85920671 132.58342099 30.83927798 C126.81782381 30.81743812 121.05225315 30.79003966 115.28667736 30.76322174 C104.36450746 30.71326778 93.44232285 30.66833898 82.52012414 30.62519938 C70.08738362 30.57585009 57.65466972 30.52092341 45.22195494 30.46551979 C19.6429934 30.35165824 -5.93599366 30.24482829 -31.51500416 30.14260101 C-30.32649563 21.15047447 -27.28676103 13.94057498 -20.55016041 7.67775726 C-14.43533017 3.06522697 -7.66527195 0.02618028 0 0 Z " fill="#FECE5C" transform="translate(56.51500415802002,116.8573989868164)"/>
<path d="M0 0 C10.12018341 6.82974126 18.25162009 16.23132847 21.109375 28.3046875 C22.86211635 42.45094772 21.08068048 54.92550453 12.484375 66.6171875 C5.06431508 75.1787951 -4.62600463 82.33424273 -16.1328125 83.53955078 C-30.81153871 84.57852214 -42.12592309 82.4189975 -53.5703125 72.59375 C-63.69033363 62.61002545 -68.20882959 51.89100938 -68.453125 37.8046875 C-68.3497359 25.69509119 -64.28808685 16.09578037 -55.890625 7.3046875 C-40.50342558 -7.44137861 -18.7222244 -10.98033161 0 0 Z " fill="#343F48" transform="translate(141.890625,310.6953125)"/>
<path d="M0 0 C10.88582537 5.44510358 17.72532439 14.81304272 22.20239258 25.9296875 C25.94165679 38.36806896 24.84961571 51.06813326 18.77661133 62.6484375 C16.03819275 66.89404769 12.96619474 70.54226555 9.20239258 73.9296875 C8.39801758 74.7340625 7.59364258 75.5384375 6.76489258 76.3671875 C-3.81693911 84.73669669 -15.47919579 86.36850457 -28.51831055 85.24560547 C-41.42787554 83.45629772 -51.07226241 74.83397597 -58.79760742 64.9296875 C-65.73324039 54.32224885 -67.10597097 43.36699526 -65.17260742 30.9296875 C-62.6060715 19.64421042 -56.4354593 10.12410886 -47.12182617 3.3828125 C-32.37161029 -5.83917121 -15.83782815 -7.27232845 0 0 Z " fill="#343F49" transform="translate(442.797607421875,309.0703125)"/>
<path d="M0 0 C21.45 0 42.9 0 65 0 C65 21.45 65 42.9 65 65 C43.55 65 22.1 65 0 65 C0 43.55 0 22.1 0 0 Z " fill="#02D3D8" transform="translate(157,162)"/>
<path d="M0 0 C21.45 0 42.9 0 65 0 C65 21.45 65 42.9 65 65 C43.55 65 22.1 65 0 65 C0 43.55 0 22.1 0 0 Z " fill="#02D3D8" transform="translate(77,162)"/>
<path d="M0 0 C2.43934225 -0.13501894 4.87124104 -0.23403897 7.3125 -0.3125 C8.34793945 -0.3753418 8.34793945 -0.3753418 9.40429688 -0.43945312 C11.42578125 -0.48828125 11.42578125 -0.48828125 15 0 C16.66796875 2.39453125 16.66796875 2.39453125 18 5 C21.68382962 6.85506254 25.24213089 7.45002125 29.30859375 7.96875 C34.51882502 8.66426256 39.71783362 9.4006148 44.91015625 10.21875 C45.57792084 10.32340576 46.24568542 10.42806152 46.9336853 10.53588867 C48.97675665 10.85641846 51.01963667 11.17814738 53.0625 11.5 C55.10964496 11.82168378 57.15683307 12.1430906 59.20405579 12.46427917 C61.19304368 12.77660008 63.18185047 13.09007358 65.1706543 13.40356445 C67.68906938 13.79581744 70.2087564 14.18000398 72.72973633 14.55541992 C73.87853271 14.72662354 75.0273291 14.89782715 76.2109375 15.07421875 C77.22075684 15.22205811 78.23057617 15.36989746 79.27099609 15.5222168 C84.17068269 16.38003453 88.28081396 17.5799278 92.19042969 20.80932617 C95.0779352 25.90063884 94.48957727 30.99086821 94.390625 36.73828125 C94.38496521 37.97418503 94.37930542 39.21008881 94.37347412 40.48344421 C94.35490285 43.75691598 94.31901355 47.02959079 94.2746582 50.30279541 C94.23361703 53.64775248 94.21578588 56.99274437 94.1953125 60.33789062 C94.15123432 66.89223769 94.08431234 73.44605369 94 80 C92.72125 80.12375 91.4425 80.2475 90.125 80.375 C86.65209064 80.69042399 86.65209064 80.69042399 84 83 C82.13405552 89.01397933 81.60610683 94.73122713 81.375 101 C81.33632813 101.87011719 81.29765625 102.74023438 81.2578125 103.63671875 C81.16459113 105.75750486 81.08125864 107.87872185 81 110 C71.39159926 100.94065073 71.39159926 100.94065073 70.60287476 95.01785278 C70.51766237 91.32358671 70.59483729 87.66544441 70.73046875 83.97265625 C70.76227738 82.61507652 70.79180792 81.25744168 70.81916809 79.89976501 C70.89684317 76.34632156 71.00521968 72.79446996 71.12023926 69.24206543 C71.23235151 65.60909936 71.31509585 61.97547395 71.40039062 58.34179688 C71.57169233 51.22695403 71.77547175 44.11337844 72 37 C71.40106934 37.01055923 70.80213867 37.02111847 70.18505859 37.03199768 C69.38922363 37.04021042 68.59338867 37.04842316 67.7734375 37.05688477 C66.98888184 37.067444 66.20432617 37.07800323 65.39599609 37.08888245 C62.25989743 36.97254498 59.40680905 36.28241673 56.37109375 35.53466797 C51.96622065 34.54139448 47.47892225 34.10143706 43 33.5625 C7.86913211 29.08755369 7.86913211 29.08755369 -1.52734375 19.046875 C-4.16566936 15.37981235 -5.61630966 11.27139192 -7 7 C-5.824375 6.6596875 -5.824375 6.6596875 -4.625 6.3125 C-1.78125 5.21875 -1.78125 5.21875 -0.6875 2.375 C-0.460625 1.59125 -0.23375 0.8075 0 0 Z " fill="#FD973A" transform="translate(394,210)"/>
<path d="M0 0 C12.21 0 24.42 0 37 0 C37 21.45 37 42.9 37 65 C29.08 65.495 29.08 65.495 21 66 C16.47404529 67.70934082 16.47404529 67.70934082 15 73 C10.05 73 5.1 73 0 73 C0 48.91 0 24.82 0 0 Z " fill="#00D2D7" transform="translate(25,162)"/>
<path d="M0 0 C8.25 0 16.5 0 25 0 C25 33 25 66 25 100 C16.75 100 8.5 100 0 100 C0 67 0 34 0 0 Z " fill="#00D3D8" transform="translate(307,242)"/>
<path d="M0 0 C8.25 0 16.5 0 25 0 C25 33 25 66 25 100 C16.75 100 8.5 100 0 100 C0 67 0 34 0 0 Z " fill="#87F8F4" transform="translate(267,242)"/>
<path d="M0 0 C0.02578125 0.81082031 0.0515625 1.62164062 0.078125 2.45703125 C0.66771509 13.96743783 2.83372187 22.64812464 11 31 C9.125 34.875 9.125 34.875 8 36 C7.86695727 38.03998851 7.76892881 40.08230011 7.6875 42.125 C7.2658269 47.9517556 6.67133103 51.4356425 3 56 C-1.87354066 59.59713715 -7.1504729 59.84651693 -13 59 C-16.7292443 57.23708451 -18.49195941 55.71125683 -20.875 52.375 C-22.85204528 46.44386417 -23.09406538 41.22865171 -20.3125 35.5625 C-15.08221925 29.76678349 -9.4599604 29.11050199 -2 28 C-1.75045995 26.56589632 -1.52607358 25.12739928 -1.3125 23.6875 C-1.18488281 22.88699219 -1.05726562 22.08648437 -0.92578125 21.26171875 C-0.80572759 18.96429347 -0.80572759 18.96429347 -2.15234375 17.23046875 C-5.93017934 14.71457401 -10.65531514 15.56003191 -15 16 C-18.73509838 16.9936012 -18.73509838 16.9936012 -22 19 C-22.65742187 19.36738281 -23.31484375 19.73476563 -23.9921875 20.11328125 C-30.40444485 24.21470624 -33.71543905 29.81995131 -36 37 C-36.87774274 42.34052758 -36.90653047 47.57876707 -37 53 C-41.95 52.67 -46.9 52.34 -52 52 C-52.71819489 37.63610227 -51.64262857 26.56515296 -42 15.09375 C-29.50467692 2.01270865 -17.42526056 -0.87126303 0 0 Z " fill="#576472" transform="translate(126,305)"/>
<path d="M0 0 C0.74121094 -0.00386719 1.48242188 -0.00773437 2.24609375 -0.01171875 C7.7483402 -0.0016598 7.7483402 -0.0016598 8.875 1.125 C9.05036839 2.88079674 9.22151765 4.63714046 9.36889648 6.39550781 C10.10205733 14.60173186 11.78696648 20.44452851 16.875 27.125 C17.43316406 27.87265625 17.99132812 28.6203125 18.56640625 29.390625 C18.99824219 29.96296875 19.43007813 30.5353125 19.875 31.125 C19.55402344 31.65351563 19.23304688 32.18203125 18.90234375 32.7265625 C17.61629945 35.72896251 17.56280567 38.24205262 17.4375 41.5 C17.01163137 47.94577441 16.24260017 51.98838521 11.3125 56.4375 C6.38261322 59.85049854 1.76539521 59.98503015 -4.125 59.125 C-7.95774351 57.10705377 -10.33994234 54.42205179 -12.5625 50.75 C-13.7111826 45.38948122 -13.95175704 41.71727281 -11.4375 36.875 C-6.78709949 31.34479399 -3.38727296 29.65378973 3.66796875 28.6171875 C6.06861177 28.28888358 6.06861177 28.28888358 7.875 26.125 C8.19037716 21.78856399 8.32397847 19.79846771 5.875 16.125 C-1.21655757 14.77850173 -7.65888757 15.9657929 -13.87109375 19.515625 C-20.30909375 24.11260247 -25.06730942 30.44823131 -27.125 38.125 C-27.71177043 42.81419084 -27.94124768 47.39337775 -28.125 52.125 C-33.075 52.125 -38.025 52.125 -43.125 52.125 C-43.45205844 38.06148691 -41.62170518 26.23810637 -32.75 14.75 C-23.73361011 5.73361011 -12.85900129 -0.0677979 0 0 Z " fill="#576572" transform="translate(420.125,304.875)"/>
<path d="M0 0 C1.71705522 3.10705231 1.89588557 4.87468658 1.3125 8.375 C-1.51872508 11.88624219 -3.75742609 12.93413909 -8.125 13.8125 C-13.17320128 15.03916573 -15.53202505 16.27288256 -18.6875 20.375 C-20.53507712 24.07015424 -20.02893535 28.33364702 -19.6875 32.375 C-18.4637146 35.91753668 -17.37833992 37.74696371 -14.625 40.25 C-9.12721839 42.35553338 -3.79783981 42.06565666 1.75 40.25 C5.11874514 37.78506453 6.00048657 36.38009363 7.3125 32.375 C7.54874931 29.04264136 7.68757479 25.73930539 7.7109375 22.3984375 C8.3125 19.375 8.3125 19.375 10.625 16.9765625 C13.3125 15.375 13.3125 15.375 16.9375 15.375 C20.75053759 16.50478891 21.43689361 16.98211203 23.3125 20.375 C23.67578125 23.6171875 23.67578125 23.6171875 23.625 27.25 C23.62113281 28.44367188 23.61726563 29.63734375 23.61328125 30.8671875 C22.90763201 39.09670715 19.12023479 46.10339427 12.87109375 51.47265625 C4.25456325 57.72638256 -3.15349748 58.03337516 -13.6875 57.375 C-22.35010414 55.54966556 -28.90788058 48.73022205 -33.55859375 41.62109375 C-37.16252216 34.45064796 -37.01756512 24.4744507 -34.59375 17.00390625 C-31.67813557 10.79271701 -28.41082542 6.19055028 -22.6875 2.375 C-21.3571875 1.4778125 -21.3571875 1.4778125 -20 0.5625 C-14.16020424 -2.43631404 -5.72046159 -3.45888375 0 0 Z " fill="#020202" transform="translate(124.6875,321.625)"/>
<path d="M0 0 C1.051875 -0.03738281 2.10375 -0.07476562 3.1875 -0.11328125 C6 0.3125 6 0.3125 7.8515625 2.109375 C9.52204688 5.31397768 9.38747529 7.76064314 9 11.3125 C7.38267593 13.50854706 6.39522888 14.21590361 3.73046875 14.8671875 C2.47169922 15.02574219 2.47169922 15.02574219 1.1875 15.1875 C-4.70256823 16.21933677 -7.72393332 18.31223028 -11.375 23.125 C-12.74838311 27.93184088 -12.49561307 31.9560853 -10.8125 36.5625 C-8.68513679 39.7902235 -7.42632321 41.45657493 -4 43.3125 C1.31007343 44.10698427 5.60569737 43.95985479 10.5 41.6875 C15.39044011 37.04158189 16.10149914 33.19892988 16.4375 26.625 C16.45683594 25.50738281 16.47617187 24.38976562 16.49609375 23.23828125 C17 20.3125 17 20.3125 18.84765625 18.4453125 C21.80621625 16.88817566 23.70276655 16.83165346 27 17.3125 C29.84348554 19.31062497 30.81567093 20.65198749 31.75 24 C31.8325 25.093125 31.915 26.18625 32 27.3125 C32.08636719 27.96089844 32.17273438 28.60929687 32.26171875 29.27734375 C32.92068657 37.3753261 29.09251387 44.11390453 24.39453125 50.4921875 C19.15763915 56.28884242 13.06466933 58.84821665 5.375 59.7265625 C-5.03735704 60.12542295 -12.19503427 58.06427227 -19.875 51 C-24.92992282 45.50396363 -27.47540147 39.788029 -28 32.3125 C-28.06316406 31.61253906 -28.12632812 30.91257812 -28.19140625 30.19140625 C-28.62252136 22.16710241 -25.78367581 16.20197186 -20.75 10.0625 C-14.89513461 3.74075957 -8.66728439 0.20181177 0 0 Z " fill="#020202" transform="translate(420,319.6875)"/>
<path d="M0 0 C13.86 0 27.72 0 42 0 C42 13.86 42 27.72 42 42 C28.14 42 14.28 42 0 42 C0 28.14 0 14.28 0 0 Z " fill="#87F8F4" transform="translate(157,162)"/>
<path d="M0 0 C13.86 0 27.72 0 42 0 C42 13.86 42 27.72 42 42 C28.14 42 14.28 42 0 42 C0 28.14 0 14.28 0 0 Z " fill="#87F8F4" transform="translate(77,162)"/>
<path d="M0 0 C27.06 0.33 54.12 0.66 82 1 C82 8.26 82 15.52 82 23 C57.58 23 33.16 23 8 23 C6.35 17.72 4.7 12.44 3 7 C2.01 4.69 1.02 2.38 0 0 Z " fill="#FE973A" transform="translate(170,319)"/>
<path d="M0 0 C8.25 0 16.5 0 25 0 C25 21.45 25 42.9 25 65 C16.75 65 8.5 65 0 65 C0 43.55 0 22.1 0 0 Z " fill="#00D3D8" transform="translate(307,162)"/>
<path d="M0 0 C8.25 0 16.5 0 25 0 C25 21.45 25 42.9 25 65 C16.75 65 8.5 65 0 65 C0 43.55 0 22.1 0 0 Z " fill="#87F8F4" transform="translate(267,162)"/>
<path d="M0 0 C10.56 0 21.12 0 32 0 C32 15.84 32 31.68 32 48 C24.08 48.495 24.08 48.495 16 49 C15.34 47.02 14.68 45.04 14 43 C11.05066065 39.62003248 11.05066065 39.62003248 0 40 C0 26.8 0 13.6 0 0 Z " fill="#01CED3" transform="translate(377,162)"/>
<path d="M0 0 C4.39381209 0.50214995 6.83419795 1.92213689 10 5 C10.9375 7.125 10.9375 7.125 11 9 C10.34 9.66 9.68 10.32 9 11 C8.77346331 13.07610844 8.64111802 15.16304903 8.5625 17.25 C8.13985977 23.74719808 7.40874825 27.82625158 2.4375 32.3125 C-2.49238678 35.72549854 -7.10960479 35.86003015 -13 35 C-16.83274351 32.98205377 -19.21494234 30.29705179 -21.4375 26.625 C-22.5861826 21.26448122 -22.82675704 17.59227281 -20.3125 12.75 C-15.67062553 7.22993306 -12.37729258 5.5473912 -5.3046875 4.6875 C-2.38734194 3.81724099 -1.56833358 2.54213548 0 0 Z " fill="#E5DFD1" transform="translate(429,329)"/>
<path d="M0 0 C3.39192363 0.59283621 5.2107757 1.76743189 7.75 4.0625 C8.67039063 4.88427734 8.67039063 4.88427734 9.609375 5.72265625 C10.06828125 6.14417969 10.5271875 6.56570313 11 7 C9.125 10.875 9.125 10.875 8 12 C7.86695727 14.03998851 7.76892881 16.08230011 7.6875 18.125 C7.2658269 23.9517556 6.67133103 27.4356425 3 32 C-1.87354066 35.59713715 -7.1504729 35.84651693 -13 35 C-16.7292443 33.23708451 -18.49195941 31.71125683 -20.875 28.375 C-22.85204528 22.44386417 -23.09406538 17.22865171 -20.3125 11.5625 C-15.56488136 6.30162529 -11.27232261 5.52867668 -4.42578125 4.72265625 C-1.83586326 4.23758518 -1.83586326 4.23758518 -0.66796875 1.93359375 C-0.44753906 1.29550781 -0.22710937 0.65742188 0 0 Z " fill="#E5E0D2" transform="translate(126,329)"/>
<path d="M0 0 C1.32 1.32 2.64 2.64 4 4 C9.61 4.33 15.22 4.66 21 5 C21 17.54 21 30.08 21 43 C15.72 43 10.44 43 5 43 C4.38125 40.339375 4.38125 40.339375 3.75 37.625 C2.77433962 33.58632891 1.63134845 30.12833983 -0.25 26.4375 C-3.43031555 19.07319516 -2.15447546 9.78458293 -1 2 C-0.67 1.34 -0.34 0.68 0 0 Z " fill="#343F48" transform="translate(476,299)"/>
<path d="M0 0 C4.95 0 9.9 0 15 0 C15.02464574 5.96313166 15.042834 11.92623395 15.05493164 17.8894043 C15.05997278 19.91968298 15.06680557 21.94995802 15.07543945 23.98022461 C15.08751467 26.89177347 15.09323034 29.8032745 15.09765625 32.71484375 C15.10281754 33.6283812 15.10797882 34.54191864 15.11329651 35.48313904 C15.11349168 37.65575427 15.06211805 39.82827296 15 42 C14.505 42.495 14.505 42.495 14 43 C9.38 43 4.76 43 0 43 C0 28.81 0 14.62 0 0 Z " fill="#81F6F2" transform="translate(25,162)"/>
<path d="M0 0 C8.25 0 16.5 0 25 0 C25 7.59 25 15.18 25 23 C16.75 23 8.5 23 0 23 C0 15.41 0 7.82 0 0 Z " fill="#02D3D8" transform="translate(267,319)"/>
<path d="M0 0 C4.95 0 9.9 0 15 0 C15 12.21 15 24.42 15 37 C10.05 37 5.1 37 0 37 C0 24.79 0 12.58 0 0 Z " fill="#596775" transform="translate(15,305)"/>
<path d="M0 0 C7.59 0 15.18 0 23 0 C20.0625 7.0625 20.0625 7.0625 19.14086914 9.24243164 C18.77916626 10.12983032 18.77916626 10.12983032 18.41015625 11.03515625 C18.16402588 11.6269165 17.91789551 12.21867676 17.66430664 12.82836914 C16.75540154 15.79959696 16.43941559 18.92409084 16 22 C10.72 22 5.44 22 0 22 C0 14.74 0 7.48 0 0 Z " fill="#FD973A" transform="translate(347,320)"/>
<path d="M0 0 C7.26 0 14.52 0 22 0 C21.05125 2.31 20.1025 4.62 19.125 7 C16.9861421 12.2770276 15.141882 17.40477819 14 23 C9.38 23 4.76 23 0 23 C0 15.41 0 7.82 0 0 Z " fill="#FD983B" transform="translate(45,319)"/>
<path d="M0 0 C4.01939365 2.86219173 6.13741857 5.45739275 8.3125 9.875 C8.82425781 10.88304687 9.33601563 11.89109375 9.86328125 12.9296875 C11 16 11 16 11 22 C3.74 22 -3.52 22 -11 22 C-9.676486 12.73540203 -6.16600127 6.87068713 0 0 Z " fill="#FB963A" transform="translate(397,125)"/>
<path d="M0 0 C3 1 3 1 4.6875 4.0625 C5.120625 5.031875 5.55375 6.00125 6 7 C4.02 6.34 2.04 5.68 0 5 C0 3.35 0 1.7 0 0 Z " fill="#5F6C78" transform="translate(126,324)"/>
</svg>
